<svg width="264" height="253" viewBox="0 0 264 253" fill="none" xmlns="http://www.w3.org/2000/svg">
<path d="M157.111 140.311C147.5 137.655 143.667 126.09 149.79 118.22L188.299 68.7222C198.23 55.957 216.492 53.362 229.586 62.8555L256.282 82.2105C262.468 86.6957 265.148 94.5978 262.967 101.921L252.749 136.231C248.086 151.887 231.753 160.935 216.007 156.584L157.111 140.311Z" fill="#FC4C01"/>
<path d="M143.481 115.719C137.985 124.039 125.801 124.11 120.209 115.855L85.0335 63.9358C75.962 50.546 79.1375 32.3754 92.2126 22.856L118.87 3.44819C125.047 -1.04925 133.391 -1.15644 139.681 3.18081L169.154 23.5011C182.604 32.7739 186.161 51.1033 177.158 64.7343L143.481 115.719Z" fill="#FC4C01"/>
<path d="M115.269 118.231C121.483 126.028 117.786 137.638 108.207 140.406L47.9589 157.816C32.4212 162.305 16.1212 153.67 11.1081 138.294L0.887667 106.944C-1.48075 99.6791 0.995625 91.7107 7.06456 87.0681L35.498 65.317C48.473 55.3913 67.0047 57.6717 77.1863 70.447L115.269 118.231Z" fill="#FC4C01"/>
<path d="M113.05 147.146C122.387 143.645 132.286 150.749 131.958 160.715L129.898 223.394C129.367 239.558 116.117 252.392 99.9438 252.408L66.9703 252.441C59.3292 252.448 52.516 247.631 49.976 240.424L38.0759 206.661C32.6455 191.254 40.541 174.334 55.8372 168.598L113.05 147.146Z" fill="#FC4C01"/>
<path d="M135.884 159.705C135.44 149.744 145.255 142.525 154.632 145.916L213.607 167.244C228.816 172.744 236.927 189.311 231.945 204.698L221.786 236.068C219.432 243.337 212.745 248.328 205.107 248.517L169.318 249.401C152.987 249.805 139.335 237.067 138.607 220.747L135.884 159.705Z" fill="#FC4C01"/>
</svg>
