<svg width="263" height="252" viewBox="0 0 263 252" fill="none" xmlns="http://www.w3.org/2000/svg">
<path d="M155.726 142.646C146.149 139.871 142.461 128.258 148.681 120.466L187.804 71.4521C197.894 58.8118 216.188 56.4448 229.162 66.1009L255.614 85.7874C261.744 90.3494 264.325 98.2844 262.053 105.58L251.408 139.759C246.55 155.357 230.105 164.2 214.415 159.653L155.726 142.646Z" fill="#FC4C01"/>
<path d="M143.404 115.886C137.806 124.137 125.622 124.056 120.132 115.732L85.6075 63.3779C76.7038 49.876 80.1057 31.7465 93.2985 22.3909L120.196 3.31712C126.428 -1.1029 134.773 -1.10601 141.009 3.30938L170.226 23.9958C183.559 33.4357 186.888 51.808 177.715 65.3256L143.404 115.886Z" fill="#FC4C01"/>
<path d="M115.051 118.12C121.167 125.995 117.326 137.557 107.713 140.206L47.2524 156.862C31.6599 161.158 15.4689 152.32 10.648 136.882L0.819439 105.408C-1.45817 98.1138 1.11742 90.1769 7.2438 85.6103L35.9463 64.2156C49.0442 54.4526 67.546 56.964 77.5674 69.8653L115.051 118.12Z" fill="#FC4C01"/>
<path d="M109.654 146.532C119.096 143.328 128.766 150.741 128.123 160.691L124.084 223.274C123.043 239.413 109.394 251.822 93.2286 251.327L60.2704 250.318C52.6329 250.085 45.9754 245.054 43.6643 237.771L32.8367 203.649C27.8957 188.078 36.3217 171.416 51.7915 166.166L109.654 146.532Z" fill="#FC4C01"/>
<path d="M133.079 159.806C132.95 149.836 142.988 142.93 152.253 146.616L210.525 169.796C225.553 175.774 233.137 192.589 227.67 207.811L216.526 238.844C213.944 246.035 207.102 250.813 199.461 250.76L163.663 250.513C147.327 250.401 134.085 237.238 133.872 220.903L133.079 159.806Z" fill="#FC4C01"/>
</svg>
